<svg xmlns="http://www.w3.org/2000/svg" viewBox="0 0 241 368" fill="none">
  <path
    fill="#66E2DC"
    d="M0 34.667C0-2.153 29.848-32 66.667-32s66.666 29.848 66.666 66.667v200H100c-55.228 0-100-44.772-100-100v-100Z"
  />
  <path
    fill="#191826"
    d="M133.333 234.667H200c36.819 0 66.667 29.847 66.667 66.666C266.667 338.152 236.819 368 200 368s-66.667-29.848-66.667-66.667v-66.666Z"
  />
  <rect
    width="66.667"
    height="66.667"
    x="200"
    y="34.667"
    fill="#FFB964"
    rx="33.333"
  />
  <rect
    width="66.667"
    height="66.667"
    x="200"
    y="-32"
    fill="#FA7453"
    rx="33.333"
  />
  <rect
    width="133.333"
    height="133.333"
    y="234.667"
    fill="#FA7453"
    rx="66.667"
  />
  <rect
    width="66.667"
    height="133.333"
    x="133.333"
    y="-32"
    fill="#191826"
    rx="33.333"
  />
  <rect
    width="131.333"
    height="131.333"
    x="134.333"
    y="102.333"
    stroke="#191826"
    stroke-width="2"
    rx="65.667"
  />
  <rect
    width="64.667"
    height="64.667"
    x="134.333"
    y="135.667"
    stroke="#191826"
    stroke-width="2"
    rx="32.333"
  />
</svg>
