<svg
  xmlns="http://www.w3.org/2000/svg"
  aria-hidden="true"
  width="147"
  height="33"
  fill="none"
>
  <path
    fill="#191826"
    d="M2.84 18.992v-3.28h11.264l-.48.832v-.48c0-.608-.144-1.19-.432-1.744-.288-.565-.736-1.024-1.344-1.376-.598-.363-1.366-.544-2.304-.544-.939 0-1.75.203-2.432.608-.672.395-1.19.965-1.552 1.712-.352.747-.528 1.648-.528 2.704 0 1.088.17 2.021.512 2.8.352.768.87 1.36 1.552 1.776.693.416 1.552.624 2.576.624.661 0 1.232-.059 1.712-.176.48-.128.87-.288 1.168-.48.31-.192.544-.405.704-.64.16-.235.256-.464.288-.688h4.896c-.064.715-.31 1.419-.736 2.112-.427.683-1.019 1.301-1.776 1.856-.758.544-1.68.976-2.768 1.296-1.078.32-2.31.48-3.696.48-1.877 0-3.515-.373-4.912-1.12-1.397-.757-2.48-1.797-3.248-3.12C.536 20.81.152 19.274.152 17.536c0-1.76.39-3.301 1.168-4.624A8.14 8.14 0 0 1 4.6 9.808c1.408-.747 3.035-1.12 4.88-1.12 1.888 0 3.52.379 4.896 1.136a7.813 7.813 0 0 1 3.184 3.152c.747 1.344 1.12 2.912 1.12 4.704 0 .267-.006.523-.016.768s-.027.427-.048.544H2.84ZM28.44 26.384c-1.42 0-2.726-.336-3.92-1.008-1.195-.683-2.155-1.69-2.88-3.024-.726-1.333-1.089-2.976-1.089-4.928 0-1.867.368-3.45 1.104-4.752.747-1.301 1.717-2.288 2.912-2.96a7.731 7.731 0 0 1 3.872-1.024c1.344 0 2.57.341 3.68 1.024 1.12.683 2.016 1.616 2.688 2.8.672 1.173 1.008 2.528 1.008 4.064v.304l-2.144.032V16.704c0-.8-.192-1.488-.576-2.064a3.875 3.875 0 0 0-1.488-1.328 4.035 4.035 0 0 0-1.904-.48c-1.098 0-2.048.368-2.848 1.104-.8.725-1.2 1.888-1.2 3.488s.4 2.779 1.2 3.536c.81.747 1.76 1.12 2.848 1.12.683 0 1.328-.16 1.936-.48a3.92 3.92 0 0 0 1.472-1.392c.373-.597.56-1.301.56-2.112l2.144.112c0 1.525-.33 2.907-.992 4.144-.65 1.227-1.536 2.208-2.656 2.944-1.11.725-2.352 1.088-3.728 1.088Zm5.231 6.608V9.008h4.976v23.984h-4.976ZM48.017 26.32c-1.206 0-2.198-.192-2.977-.576-.778-.395-1.392-.923-1.84-1.584a6.38 6.38 0 0 1-.944-2.208 11.25 11.25 0 0 1-.272-2.464V9.008h4.96v9.168c0 .715.08 1.37.24 1.968.16.597.454 1.077.88 1.44.438.363 1.056.544 1.856.544.78 0 1.44-.219 1.984-.656a4.322 4.322 0 0 0 1.248-1.712 5.538 5.538 0 0 0 .432-2.144l1.392 1.136a8.714 8.714 0 0 1-.495 2.976 7.388 7.388 0 0 1-1.377 2.416 6.235 6.235 0 0 1-2.191 1.6c-.854.384-1.82.576-2.896.576Zm5.567-.32V9.008h4.96V26h-4.96ZM67.581 26.352c-1.237 0-2.341-.197-3.312-.592-.96-.395-1.712-.965-2.256-1.712-.544-.747-.816-1.653-.816-2.72 0-1.205.33-2.187.992-2.944.662-.757 1.536-1.333 2.624-1.728a14.415 14.415 0 0 1 3.568-.8c1.867-.181 3.152-.347 3.856-.496.715-.15 1.072-.41 1.072-.784v-.032c0-.63-.304-1.125-.912-1.488-.597-.363-1.434-.544-2.512-.544-1.141 0-2.016.208-2.624.624-.597.405-.896 1.03-.896 1.872h-4.88c0-1.365.368-2.517 1.104-3.456.747-.939 1.755-1.648 3.024-2.128 1.27-.49 2.704-.736 4.304-.736 1.494 0 2.875.23 4.144.688 1.27.448 2.288 1.125 3.056 2.032.779.907 1.168 2.059 1.168 3.456v7.344c0 .437.01.859.032 1.264.032.395.096.757.192 1.088.107.373.24.683.4.928.16.245.294.416.4.512h-4.88a3.723 3.723 0 0 1-.352-.464 3.848 3.848 0 0 1-.384-.816 7.2 7.2 0 0 1-.288-1.12 9.884 9.884 0 0 1-.08-1.344l1.024.704c-.298.704-.784 1.312-1.456 1.824-.661.501-1.45.89-2.368 1.168-.906.267-1.888.4-2.944.4Zm1.328-3.712c.779 0 1.504-.139 2.176-.416a3.799 3.799 0 0 0 1.664-1.344c.427-.608.64-1.403.64-2.384v-1.712l1.232 1.2c-.704.256-1.52.47-2.448.64-.917.16-1.834.288-2.752.384-1.088.107-1.904.293-2.448.56-.533.256-.8.693-.8 1.312 0 .587.23 1.03.688 1.328.459.288 1.142.432 2.048.432ZM86.607.992V26H81.71V.992h4.896ZM89.928 26V9.008h4.912V26h-4.912Zm2.448-19.76c-.768 0-1.44-.203-2.016-.608-.565-.405-.848-.976-.848-1.712 0-.747.283-1.323.848-1.728.576-.405 1.248-.608 2.016-.608.778 0 1.45.203 2.016.608.576.405.864.981.864 1.728s-.288 1.323-.864 1.728c-.565.395-1.237.592-2.016.592ZM102.386 22.112h9.216V26H97.074v-3.68l8.992-9.616.112.176h-8.784V9.008h14.016v3.68l-8.912 9.584-.112-.16ZM115.541 18.992v-3.28h11.264l-.48.832v-.48c0-.608-.144-1.19-.432-1.744-.288-.565-.736-1.024-1.344-1.376-.597-.363-1.365-.544-2.304-.544-.938 0-1.749.203-2.432.608-.672.395-1.189.965-1.552 1.712-.352.747-.528 1.648-.528 2.704 0 1.088.171 2.021.512 2.8.352.768.87 1.36 1.552 1.776.694.416 1.552.624 2.576.624.662 0 1.232-.059 1.712-.176.48-.128.87-.288 1.168-.48.31-.192.544-.405.704-.64.16-.235.256-.464.288-.688h4.896c-.064.715-.309 1.419-.736 2.112-.426.683-1.018 1.301-1.776 1.856-.757.544-1.68.976-2.768 1.296-1.077.32-2.309.48-3.696.48-1.877 0-3.514-.373-4.912-1.12-1.397-.757-2.48-1.797-3.248-3.12-.768-1.333-1.152-2.87-1.152-4.608 0-1.76.39-3.301 1.168-4.624a8.146 8.146 0 0 1 3.28-3.104c1.408-.747 3.035-1.12 4.88-1.12 1.888 0 3.52.379 4.896 1.136a7.808 7.808 0 0 1 3.184 3.152c.747 1.344 1.12 2.912 1.12 4.704 0 .267-.005.523-.016.768-.01.245-.026.427-.048.544h-15.776ZM134.037 26V9.008h4.976v5.856l-1.024-.64c.117-.8.33-1.536.64-2.208a5.957 5.957 0 0 1 1.2-1.744 5.164 5.164 0 0 1 1.744-1.168c.682-.277 1.461-.416 2.336-.416.682 0 1.216.053 1.6.16.394.096.64.17.736.224l-.816 4.448a5.39 5.39 0 0 0-.64-.256c-.331-.117-.758-.176-1.28-.176-.854 0-1.568.144-2.144.432a3.796 3.796 0 0 0-1.392 1.152c-.342.47-.587.992-.736 1.568a6.893 6.893 0 0 0-.224 1.744V26h-4.976Z"
  />
</svg>
